# xmcd
#
# Track frame offsets: 
#        150
#        21135
#        39558
#        57103
#        74517
#        90905
#        111043
#        131221
#        147268
#        162789
#        190496
#        210689
#        226514
#
# Disc length: 3290 seconds
#
# Revision: 0
# Processed by: cddbd v1.5.2PL0 Copyright (c) Steve Scherf et al.
# Submitted via: ExactAudioCopyFreeDBPlugin 1.0
#
DISCID=ae0cd80d
DTITLE=Hunter Smith Band - Green
DYEAR=2012
DGENRE=Country
TTITLE0=One Night Woman
TTITLE1=Goin" Green
TTITLE2=Be There
TTITLE3=Carhartt Tan
TTITLE4=Jersey
TTITLE5=Picture In My Mind
TTITLE6=Deserts of Virginia
TTITLE7=Down the Line
TTITLE8=Radio
TTITLE9=Something In the Stone
TTITLE10=Don't Shine
TTITLE11=Mia's Song
TTITLE12=$100 Donkey
EXTD=
EXTT0=
EXTT1=
EXTT2=
EXTT3=
EXTT4=
EXTT5=
EXTT6=
EXTT7=
EXTT8=
EXTT9=
EXTT10=
EXTT11=
EXTT12=
PLAYORDER=
